# xmcd CD database file
#
# Track frame offsets:
#	150
#	9265
#	28732
#	49882
#	71327
#	88247
#	107925
#	125430
#	145687
#	168417
#	188342
#	207625
#
# Disc length: 3140 seconds
#
# Revision: 2
# Processed by: cddbd v1.5.2PL0 Copyright (c) Steve Scherf et al.
# Submitted via: CDex 1.51
#
DISCID=a30c420c
DTITLE=Kish - Order From Chaos
DYEAR=1991
DGENRE=Hip-Hop
TTITLE0=Intro
TTITLE1=I Rhyme The World in 80 Days
TTITLE2=Shogun
TTITLE3=Jim Class
TTITLE4=Strict Economics
TTITLE5=Gettin' the Mood Right
TTITLE6=I'm Goin' Hypa
TTITLE7=What Has to be Done
TTITLE8=Tightrope
TTITLE9=It Runs in The Family
TTITLE10=She's A Flirt (Let's Do it)
TTITLE11=Trackapella
EXTD=YEAR: 1991
EXTT0=
EXTT1=
EXTT2=
EXTT3=
EXTT4=
EXTT5=
EXTT6=
EXTT7=
EXTT8=
EXTT9=
EXTT10=
EXTT11=
PLAYORDER=
